{
  "accessors": [
    {
      "bufferView": 2,
      "componentType": 5126,
      "count": 1984,
      "max": [
        3.50506329536438,
        3.1505942344665527,
        3.4606800079345703
      ],
      "min": [
        -2.56491756439209,
        -0.03759545087814331,
        -1.32326340675354
      ],
      "type": "VEC3"
    },
    {
      "bufferView": 2,
      "byteOffset": 23808,
      "componentType": 5126,
      "count": 1984,
      "max": [
        0.9998323321342468,
        0.9982513189315796,
        0.9991433620452881
      ],
      "min": [
        -0.9977638721466064,
        -0.9999690651893616,
        -0.9984778165817261
      ],
      "type": "VEC3"
    },
    {
      "bufferView": 1,
      "componentType": 5126,
      "count": 1984,
      "max": [
        0.875,
        1.0
      ],
      "min": [
        0.125,
        0.0
      ],
      "type": "VEC2"
    },
    {
      "bufferView": 0,
      "componentType": 5125,
      "count": 11040,
      "type": "SCALAR"
    },
    {
      "bufferView": 2,
      "byteOffset": 47616,
      "componentType": 5126,
      "count": 7060,
      "max": [
        6.806318759918213,
        13.12017822265625,
        4.42453670501709
      ],
      "min": [
        -4.744713306427002,
        2.193549633026123,
        -4.200598239898682
      ],
      "type": "VEC3"
    },
    {
      "bufferView": 2,
      "byteOffset": 132336,
      "componentType": 5126,
      "count": 7060,
      "max": [
        1.0,
        0.9999822974205017,
        0.9999992251396179
      ],
      "min": [
        -1.0,
        -0.9868948459625244,
        -0.9999992251396179
      ],
      "type": "VEC3"
    },
    {
      "bufferView": 1,
      "byteOffset": 15872,
      "componentType": 5126,
      "count": 7060,
      "max": [
        1.0,
        1.0
      ],
      "min": [
        0.0,
        0.0
      ],
      "type": "VEC2"
    },
    {
      "bufferView": 0,
      "byteOffset": 44160,
      "componentType": 5125,
      "count": 39264,
      "type": "SCALAR"
    },
    {
      "bufferView": 2,
      "byteOffset": 217056,
      "componentType": 5126,
      "count": 3145,
      "max": [
        7.482539653778076,
        19.67082405090332,
        5.249066352844238
      ],
      "min": [
        -6.2454304695129395,
        4.917502403259277,
        -5.30239725112915
      ],
      "type": "VEC3"
    },
    {
      "bufferView": 2,
      "byteOffset": 254796,
      "componentType": 5126,
      "count": 3145,
      "max": [
        0.9999998211860657,
        0.9999956488609314,
        1.0
      ],
      "min": [
        -0.9973108172416687,
        -0.9999626278877258,
        -0.9965986609458923
      ],
      "type": "VEC3"
    },
    {
      "bufferView": 1,
      "byteOffset": 72352,
      "componentType": 5126,
      "count": 3145,
      "max": [
        0.65625,
        1.0
      ],
      "min": [
        0.125,
        0.0
      ],
      "type": "VEC2"
    },
    {
      "bufferView": 0,
      "byteOffset": 201216,
      "componentType": 5125,
      "count": 17952,
      "type": "SCALAR"
    },
    {
      "bufferView": 2,
      "byteOffset": 292536,
      "componentType": 5126,
      "count": 2537,
      "max": [
        4.082059383392334,
        16.576087951660156,
        3.273977041244507
      ],
      "min": [
        -7.070461273193359,
        2.070887565612793,
        -3.270197868347168
      ],
      "type": "VEC3"
    },
    {
      "bufferView": 2,
      "byteOffset": 322980,
      "componentType": 5126,
      "count": 2537,
      "max": [
        0.9998844861984253,
        0.9972250461578369,
        0.9999892711639404
      ],
      "min": [
        -0.9999853372573853,
        -0.989341676235199,
        -0.9999892711639404
      ],
      "type": "VEC3"
    },
    {
      "bufferView": 1,
      "byteOffset": 97512,
      "componentType": 5126,
      "count": 2537,
      "max": [
        0.8750000596046448,
        1.0
      ],
      "min": [
        0.125,
        0.0
      ],
      "type": "VEC2"
    },
    {
      "bufferView": 0,
      "byteOffset": 273024,
      "componentType": 5125,
      "count": 14208,
      "type": "SCALAR"
    },
    {
      "bufferView": 2,
      "byteOffset": 353424,
      "componentType": 5126,
      "count": 398,
      "max": [
        2.461317539215088,
        14.899946212768555,
        2.452709913253784
      ],
      "min": [
        -0.8941699862480164,
        13.299373626708984,
        1.4306329488754272
      ],
      "type": "VEC3"
    },
    {
      "bufferView": 2,
      "byteOffset": 358200,
      "componentType": 5126,
      "count": 398,
      "max": [
        0.9905010461807251,
        0.9801920652389526,
        0.9909846782684326
      ],
      "min": [
        -0.9953320622444153,
        -0.9974757432937622,
        -0.9941043853759766
      ],
      "type": "VEC3"
    },
    {
      "bufferView": 1,
      "byteOffset": 117808,
      "componentType": 5126,
      "count": 398,
      "max": [
        0.8000000715255737,
        0.7000000476837158
      ],
      "min": [
        0.5,
        0.5
      ],
      "type": "VEC2"
    },
    {
      "bufferView": 0,
      "byteOffset": 329856,
      "componentType": 5125,
      "count": 1920,
      "type": "SCALAR"
    },
    {
      "bufferView": 2,
      "byteOffset": 362976,
      "componentType": 5126,
      "count": 437,
      "max": [
        3.2139198780059814,
        15.901579856872559,
        2.4277572631835938
      ],
      "min": [
        -1.6477093696594238,
        11.515599250793457,
        -2.4277572631835938
      ],
      "type": "VEC3"
    },
    {
      "bufferView": 2,
      "byteOffset": 368220,
      "componentType": 5126,
      "count": 437,
      "max": [
        1.0,
        1.0,
        1.0
      ],
      "min": [
        -1.0,
        -1.0,
        -1.0
      ],
      "type": "VEC3"
    },
    {
      "bufferView": 1,
      "byteOffset": 120992,
      "componentType": 5126,
      "count": 437,
      "max": [
        1.0000001192092896,
        1.0
      ],
      "min": [
        0.0,
        0.0
      ],
      "type": "VEC2"
    },
    {
      "bufferView": 0,
      "byteOffset": 337536,
      "componentType": 5125,
      "count": 2280,
      "type": "SCALAR"
    }
  ],
  "asset": {
    "extras": {
      "author": "Daniele Cocchi (https://sketchfab.com/Cocchi)",
      "license": "CC-BY-4.0 (http://creativecommons.org/licenses/by/4.0/)",
      "source": "https://sketchfab.com/3d-models/black-mage-final-fantasy-23b08a61b5aa4b9490723550bd84c9fe",
      "title": "BLACK MAGE - FINAL FANTASY"
    },
    "generator": "Sketchfab-13.74.0",
    "version": "2.0"
  },
  "bufferViews": [
    {
      "buffer": 0,
      "byteLength": 346656,
      "name": "floatBufferViews",
      "target": 34963
    },
    {
      "buffer": 0,
      "byteLength": 124488,
      "byteOffset": 346656,
      "byteStride": 8,
      "name": "floatBufferViews",
      "target": 34962
    },
    {
      "buffer": 0,
      "byteLength": 373464,
      "byteOffset": 471144,
      "byteStride": 12,
      "name": "floatBufferViews",
      "target": 34962
    }
  ],
  "buffers": [
    {
      "byteLength": 844608,
      "uri": "scene.bin"
    }
  ],
  "materials": [
    {
      "doubleSided": true,
      "name": "lambert4",
      "pbrMetallicRoughness": {
        "baseColorFactor": [
          0.129083,
          0.0800219,
          0.0248291,
          1.0
        ],
        "metallicFactor": 0.0,
        "roughnessFactor": 0.6
      }
    },
    {
      "doubleSided": true,
      "name": "lambert2",
      "pbrMetallicRoughness": {
        "baseColorFactor": [
          0.147406,
          0.263885,
          0.679093,
          1.0
        ],
        "metallicFactor": 0.0,
        "roughnessFactor": 0.6
      }
    },
    {
      "doubleSided": true,
      "name": "lambert3",
      "pbrMetallicRoughness": {
        "baseColorFactor": [
          0.880605,
          0.782285,
          0.180862,
          1.0
        ],
        "metallicFactor": 0.0,
        "roughnessFactor": 0.6
      }
    },
    {
      "doubleSided": true,
      "name": "lambert6",
      "pbrMetallicRoughness": {
        "baseColorFactor": [
          0.267733,
          0.162459,
          0.0474422,
          1.0
        ],
        "metallicFactor": 0.0,
        "roughnessFactor": 0.6
      }
    },
    {
      "doubleSided": true,
      "name": "lambert7",
      "pbrMetallicRoughness": {
        "baseColorFactor": [
          0.936241,
          0.938691,
          0.152155,
          1.0
        ],
        "metallicFactor": 0.0,
        "roughnessFactor": 0.6
      }
    },
    {
      "doubleSided": true,
      "name": "lambert5",
      "pbrMetallicRoughness": {
        "baseColorFactor": [
          0.0395462,
          0.0395462,
          0.0395462,
          1.0
        ],
        "metallicFactor": 0.0,
        "roughnessFactor": 0.6
      }
    }
  ],
  "meshes": [
    {
      "name": "pCube10_lambert4_0",
      "primitives": [
        {
          "attributes": {
            "NORMAL": 1,
            "POSITION": 0,
            "TEXCOORD_0": 2
          },
          "indices": 3,
          "material": 0,
          "mode": 4
        }
      ]
    },
    {
      "name": "pCube10_lambert2_0",
      "primitives": [
        {
          "attributes": {
            "NORMAL": 5,
            "POSITION": 4,
            "TEXCOORD_0": 6
          },
          "indices": 7,
          "material": 1,
          "mode": 4
        }
      ]
    },
    {
      "name": "pCube10_lambert3_0",
      "primitives": [
        {
          "attributes": {
            "NORMAL": 9,
            "POSITION": 8,
            "TEXCOORD_0": 10
          },
          "indices": 11,
          "material": 2,
          "mode": 4
        }
      ]
    },
    {
      "name": "pCube10_lambert6_0",
      "primitives": [
        {
          "attributes": {
            "NORMAL": 13,
            "POSITION": 12,
            "TEXCOORD_0": 14
          },
          "indices": 15,
          "material": 3,
          "mode": 4
        }
      ]
    },
    {
      "name": "pCube10_lambert7_0",
      "primitives": [
        {
          "attributes": {
            "NORMAL": 17,
            "POSITION": 16,
            "TEXCOORD_0": 18
          },
          "indices": 19,
          "material": 4,
          "mode": 4
        }
      ]
    },
    {
      "name": "pCube10_lambert5_0",
      "primitives": [
        {
          "attributes": {
            "NORMAL": 21,
            "POSITION": 20,
            "TEXCOORD_0": 22
          },
          "indices": 23,
          "material": 5,
          "mode": 4
        }
      ]
    }
  ],
  "nodes": [
    {
      "children": [
        1
      ],
      "matrix": [
        1.0,
        0.0,
        0.0,
        0.0,
        0.0,
        2.220446049250313e-16,
        -1.0,
        0.0,
        0.0,
        1.0,
        2.220446049250313e-16,
        0.0,
        0.0,
        0.0,
        0.0,
        1.0
      ],
      "name": "Sketchfab_model"
    },
    {
      "children": [
        2
      ],
      "matrix": [
        0.009999999776482582,
        0.0,
        0.0,
        0.0,
        0.0,
        0.0,
        0.009999999776482582,
        0.0,
        0.0,
        -0.009999999776482582,
        0.0,
        0.0,
        0.0,
        0.0,
        0.0,
        1.0
      ],
      "name": "76d52a1e240b4adc9a03c2f83280a955.fbx"
    },
    {
      "children": [
        3
      ],
      "name": "RootNode"
    },
    {
      "children": [
        4,
        5,
        6,
        7,
        8,
        9
      ],
      "name": "pCube10"
    },
    {
      "mesh": 0,
      "name": "pCube10_lambert4_0"
    },
    {
      "mesh": 1,
      "name": "pCube10_lambert2_0"
    },
    {
      "mesh": 2,
      "name": "pCube10_lambert3_0"
    },
    {
      "mesh": 3,
      "name": "pCube10_lambert6_0"
    },
    {
      "mesh": 4,
      "name": "pCube10_lambert7_0"
    },
    {
      "mesh": 5,
      "name": "pCube10_lambert5_0"
    }
  ],
  "scene": 0,
  "scenes": [
    {
      "name": "Sketchfab_Scene",
      "nodes": [
        0
      ]
    }
  ]
}
